<!-- Generated by IcoMoon.io -->
<svg version="1.1" xmlns="http://www.w3.org/2000/svg" width="32" height="32" viewBox="0 0 32 32">
<title>bruise</title>
<path fill="#6f777a" d="M20.622 0.185c-0.37 0.1-0.882 0.327-1.138 0.484-0.27 0.171-4.636 4.466-9.685 9.529-10.283 10.311-9.742 9.657-9.714 11.705 0.014 1.735 0.213 2.020 3.954 5.803 2.788 2.816 3.428 3.385 4.21 3.769 0.768 0.384 1.081 0.455 1.92 0.455 1.977 0 1.38 0.512 11.705-9.799 10.453-10.425 10.055-9.956 10.055-11.961-0.014-1.82-0.313-2.247-4.238-6.144-2.432-2.404-3.484-3.342-3.982-3.584-0.853-0.384-2.233-0.498-3.086-0.256zM23.125 1.778c0.498 0.256 1.593 1.252 3.84 3.513 2.56 2.574 3.186 3.3 3.399 3.854 0.299 0.811 0.228 1.892-0.199 2.56-0.156 0.256-4.366 4.523-9.358 9.515-9.685 9.657-9.344 9.358-10.724 9.358-1.038 0-1.778-0.555-5.049-3.868-2.56-2.574-3.186-3.3-3.399-3.854-0.299-0.811-0.228-1.892 0.199-2.56 0.156-0.256 4.366-4.537 9.358-9.515 7.111-7.097 9.188-9.088 9.572-9.188 0.868-0.256 1.607-0.185 2.361 0.185z"></path>
<path fill="#6f777a" d="M21.831 4.622c-0.427 0.412-0.455 0.91-0.085 1.365 0.327 0.398 1.18 0.455 1.536 0.085 0.37-0.356 0.313-1.209-0.085-1.536-0.455-0.37-0.953-0.341-1.365 0.085z"></path>
<path fill="#6f777a" d="M19.797 6.628c-0.441 0.299-0.441 1.237 0 1.536 0.725 0.512 1.678 0.071 1.678-0.768s-0.953-1.28-1.678-0.768z"></path>
<path fill="#6f777a" d="M23.893 6.684c-0.156 0.156-0.284 0.469-0.284 0.711s0.128 0.555 0.284 0.711c0.156 0.156 0.469 0.284 0.711 0.284s0.555-0.128 0.711-0.284c0.156-0.156 0.284-0.469 0.284-0.711s-0.128-0.555-0.284-0.711c-0.156-0.156-0.469-0.284-0.711-0.284s-0.555 0.128-0.711 0.284z"></path>
<path fill="#6f777a" d="M12.26 12.274c-2.674 2.674-4.153 4.252-4.153 4.437 0 0.384 6.798 7.182 7.182 7.182 0.185 0 1.778-1.493 4.466-4.181 3.627-3.627 4.167-4.224 4.096-4.508-0.128-0.469-6.798-7.097-7.154-7.097-0.171 0-1.806 1.536-4.437 4.167zM18.745 18.731l-3.456 3.456-5.476-5.476 6.898-6.898 5.476 5.476-3.442 3.442z"></path>
<path fill="#6f777a" d="M22.087 8.533c-0.668 0.27-0.796 1.109-0.256 1.636 0.668 0.683 1.692 0.27 1.692-0.697 0-0.284-0.1-0.612-0.199-0.711-0.284-0.284-0.853-0.384-1.237-0.228z"></path>
<path fill="#6f777a" d="M26.197 8.533c-0.313 0.128-0.597 0.654-0.597 1.081 0 0.341 0.668 0.91 1.067 0.91 0.469 0 1.067-0.583 1.067-1.038 0-0.725-0.839-1.237-1.536-0.953z"></path>
<path fill="#6f777a" d="M23.893 10.809c-0.341 0.341-0.37 0.953-0.057 1.394 0.156 0.228 0.356 0.313 0.768 0.313s0.612-0.085 0.768-0.313c0.512-0.725 0.071-1.678-0.768-1.678-0.242 0-0.555 0.128-0.711 0.284z"></path>
<path fill="#6f777a" d="M6.642 19.74c-0.327 0.356-0.299 1.109 0.043 1.451 0.64 0.64 1.707 0.156 1.707-0.754 0-0.284-0.114-0.583-0.256-0.711-0.356-0.327-1.209-0.313-1.493 0.014z"></path>
<path fill="#6f777a" d="M4.622 21.831c-0.683 0.668-0.27 1.692 0.697 1.692 0.668 0 0.996-0.327 0.996-0.996 0-0.967-1.024-1.38-1.692-0.697z"></path>
<path fill="#6f777a" d="M8.804 21.746c-0.398 0.327-0.455 1.18-0.085 1.536 0.356 0.37 1.209 0.313 1.536-0.085 0.37-0.455 0.341-0.953-0.085-1.365-0.412-0.427-0.91-0.455-1.365-0.085z"></path>
<path fill="#6f777a" d="M6.684 23.893c-0.612 0.612-0.156 1.707 0.711 1.707 0.242 0 0.555-0.128 0.711-0.284s0.284-0.469 0.284-0.711c0-0.242-0.128-0.555-0.284-0.711s-0.469-0.284-0.711-0.284c-0.242 0-0.555 0.128-0.711 0.284z"></path>
<path fill="#6f777a" d="M10.809 23.893c-0.597 0.597-0.171 1.707 0.683 1.707 0.654 0 1.024-0.356 1.024-0.996 0-0.412-0.085-0.612-0.313-0.768-0.441-0.313-1.052-0.284-1.394 0.057z"></path>
<path fill="#6f777a" d="M8.988 25.742c-0.953 0.398-0.555 1.991 0.512 1.991 0.427 0 1.024-0.612 1.024-1.038 0-0.725-0.839-1.237-1.536-0.953z"></path>
</svg>
