<!-- Generated by IcoMoon.io -->
<svg version="1.1" xmlns="http://www.w3.org/2000/svg" width="32" height="32" viewBox="0 0 32 32">
<title>fracture1</title>
<path d="M23.168 2.464c-2.224 0.592-3.44 3.008-2.608 5.168 0.272 0.72 0.272 0.736-0.048 0.992-0.176 0.144-1.232 1.008-2.352 1.936-1.696 1.424-2 1.744-1.968 2.080 0.048 0.384 0.080 0.4 1.216 0.384 0.72 0 1.152 0.064 1.152 0.16s-0.112 0.512-0.24 0.944c-0.4 1.344-0.16 1.472 2.304 1.312l1.696-0.112 1.28-1.072 1.28-1.088 0.72 0.384c0.624 0.336 0.896 0.384 2.016 0.336 1.088-0.048 1.392-0.112 1.968-0.496 2.416-1.6 2.256-5.344-0.272-6.72-0.432-0.24-0.912-0.432-1.056-0.432-0.176 0-0.256-0.144-0.256-0.528 0-0.8-0.752-2.144-1.472-2.672-0.336-0.256-0.992-0.528-1.424-0.624-0.96-0.208-0.976-0.208-1.936 0.048zM25.456 3.776c0.528 0.272 1.232 1.088 1.344 1.552 0.048 0.192 0.096 0.672 0.112 1.072 0.048 0.72 0.048 0.72 0.784 0.896 0.96 0.24 1.312 0.432 1.808 1.024 0.576 0.688 0.8 1.6 0.576 2.4-0.192 0.736-0.816 1.52-1.456 1.84-0.896 0.464-2.432 0.224-3.008-0.464-0.416-0.496-0.96-0.288-2.384 0.912-1.376 1.184-1.392 1.184-2.544 1.296-0.64 0.064-1.168 0.064-1.168 0s0.112-0.544 0.256-1.040c0.336-1.184 0.24-1.392-0.56-1.456l-0.64-0.048 1.824-1.52c1.168-0.944 1.84-1.616 1.84-1.808 0-0.16-0.16-0.528-0.352-0.784-0.448-0.64-0.56-1.84-0.24-2.464 0.784-1.504 2.432-2.112 3.808-1.408z"></path>
<path d="M14.704 14.384c-1.376 0.128-0.96-0.144-5.248 3.408-1.68 1.392-1.984 1.568-2.192 1.232-0.208-0.352-1.44-0.784-2.224-0.784-1.472 0-3.104 1.072-3.664 2.432-0.848 2.032 0.432 4.816 2.384 5.184 0.496 0.080 0.528 0.144 0.592 0.896 0.112 1.008 0.752 1.952 1.792 2.608 0.64 0.384 0.992 0.48 1.92 0.528 1.008 0.048 1.232 0 2.016-0.4 1.568-0.816 2.336-2.672 1.856-4.512l-0.224-0.848 3.872-3.2c2.112-1.76 3.952-3.328 4.064-3.472 0.112-0.16 0.144-0.416 0.096-0.576-0.112-0.256-0.272-0.272-1.632-0.192-1.152 0.080-1.488 0.064-1.424-0.096 0.24-0.672 0.464-1.872 0.384-2.096-0.112-0.272-0.256-0.288-2.368-0.112zM15.504 16.48c-0.288 0.96-0.272 1.424 0.080 1.456 0.096 0.016 0.544 0.016 0.976-0.016 0.512-0.016 0.736 0.032 0.64 0.128-0.080 0.080-1.664 1.376-3.488 2.896-1.824 1.504-3.36 2.848-3.408 2.96s0.080 0.48 0.272 0.816c0.432 0.72 0.464 1.856 0.096 2.576-0.864 1.664-2.96 2.016-4.32 0.736-0.672-0.624-0.816-0.96-0.912-2.016l-0.080-0.944-0.768-0.192c-2.528-0.64-3.2-3.424-1.2-4.88 1.168-0.848 2.224-0.832 3.28 0.080 0.368 0.304 0.784 0.56 0.96 0.56 0.16 0 1.664-1.152 3.328-2.56l3.040-2.544h0.896l0.912-0.016-0.304 0.96z"></path>
</svg>
