<!-- Generated by IcoMoon.io -->
<svg version="1.1" xmlns="http://www.w3.org/2000/svg" width="32" height="32" viewBox="0 0 32 32">
<title>operation1</title>
<path d="M26.281 0.156c-0.113 0.112-0.156 0.219-0.156 0.406 0 0.225 0.044 0.294 0.438 0.712l0.444 0.462-0.706 0.688c-0.387 0.375-1.325 1.275-2.081 2l-1.375 1.319-1.256-1.256c-1.156-1.15-1.275-1.25-1.475-1.25-0.294 0-0.456 0.094-0.55 0.319-0.119 0.294-0.031 0.494 0.469 1.006l0.462 0.475-6.688 6.681c-3.706 3.706-6.731 6.775-6.775 6.881-0.050 0.106-0.069 0.262-0.050 0.344s0.287 0.406 0.6 0.725l0.562 0.569-0.606 0.625c-0.544 0.563-0.6 0.637-0.6 0.856 0 0.212 0.056 0.288 0.531 0.775l0.531 0.544-0.531 0.525-0.531 0.531 0.969 0.969 0.531-0.525 0.531-0.531 0.544 0.531c0.506 0.488 0.563 0.525 0.8 0.525s0.3-0.038 0.869-0.594l0.606-0.587 0.55 0.55c0.588 0.594 0.756 0.675 1.069 0.538 0.1-0.044 3.194-3.094 6.875-6.775l6.681-6.688 0.475 0.463c0.262 0.25 0.556 0.481 0.644 0.5 0.381 0.1 0.781-0.281 0.688-0.662-0.019-0.081-0.631-0.75-1.369-1.494l-1.337-1.344 1.731-1.656c0.95-0.912 1.887-1.806 2.094-1.994l0.363-0.331 0.469 0.444c0.425 0.4 0.494 0.444 0.719 0.444 0.356 0 0.563-0.213 0.563-0.575v-0.269l-2.519-2.513-2.512-2.519h-0.269c-0.2 0-0.306 0.037-0.419 0.156zM28.688 4.831c-0.394 0.388-1.331 1.288-2.081 2.006l-1.363 1.313-0.781-0.781c-0.425-0.425-0.769-0.794-0.762-0.813 0.012-0.025 0.95-0.931 2.081-2.019l2.063-1.975 0.781 0.788 0.781 0.781-0.719 0.7zM19.644 17.137l-6.488 6.488-4.781-4.781 1.281-1.281 0.637 0.637c0.525 0.525 0.669 0.631 0.825 0.631 0.25 0 0.444-0.175 0.444-0.413 0-0.15-0.119-0.306-0.637-0.837l-0.637-0.65 1.463-1.463 1.269 1.269c0.7 0.694 1.319 1.262 1.381 1.262 0.131 0 0.363-0.119 0.425-0.212 0.025-0.038 0.050-0.15 0.050-0.25 0-0.156-0.188-0.375-1.25-1.444l-1.25-1.256 1.125-1.113 0.644 0.637c0.531 0.519 0.688 0.637 0.838 0.637 0.238 0 0.412-0.194 0.412-0.444 0-0.156-0.106-0.3-0.631-0.825l-0.637-0.637 1.469-1.469 1.25 1.25c1.075 1.075 1.275 1.25 1.438 1.25 0.1 0 0.219-0.025 0.256-0.050 0.125-0.081 0.219-0.331 0.181-0.469-0.025-0.075-0.594-0.694-1.269-1.369l-1.231-1.238 1.125-1.125 0.625 0.625c0.55 0.544 0.656 0.625 0.837 0.625 0.275 0 0.444-0.156 0.444-0.4 0-0.162-0.106-0.3-0.637-0.831l-0.644-0.644 0.738-0.731 0.731-0.737 1.231 1.231c0.681 0.675 1.3 1.244 1.375 1.269 0.137 0.037 0.387-0.056 0.469-0.181 0.025-0.037 0.050-0.156 0.050-0.256 0-0.162-0.175-0.363-1.25-1.438l-1.25-1.25 1.281-1.281 4.781 4.781-6.481 6.481zM10.613 23.356l-0.331 0.331-1.969-1.969 0.656-0.656 1.969 1.969-0.325 0.325z"></path>
<path d="M3.587 28.012c-2.538 2.55-3.406 3.462-3.494 3.663-0.063 0.144-0.1 0.281-0.075 0.3 0.019 0.019 0.169-0.025 0.338-0.1 0.244-0.106 0.938-0.769 3.662-3.488 1.844-1.844 3.356-3.387 3.356-3.425 0-0.081-0.263-0.337-0.35-0.337-0.031 0-1.581 1.525-3.438 3.387z"></path>
</svg>
