<!-- Generated by IcoMoon.io -->
<svg version="1.1" xmlns="http://www.w3.org/2000/svg" width="32" height="32" viewBox="0 0 32 32">
<title>operation2</title>
<path d="M20.708 0.199c-0.768 0.284-1.209 0.64-1.721 1.351-0.341 0.484-0.427 0.768-0.469 1.55-0.043 0.64 0.014 1.138 0.142 1.451 0.469 1.095 1.465 1.892 2.645 2.076l0.555 0.085-10.923 12.302c-6.016 6.756-10.937 12.373-10.937 12.473 0 0.228 0.284 0.512 0.526 0.512 0.1 0 5.703-4.921 12.459-10.937l12.302-10.937 0.085 0.569c0.27 1.707 1.564 2.816 3.285 2.816 1.92 0 3.271-1.351 3.257-3.271-0.014-1.436-0.74-2.546-2.005-3.086-0.74-0.299-2.034-0.242-2.716 0.128-0.327 0.185-3.044 2.517-6.059 5.191-3.015 2.688-5.504 4.878-5.532 4.878-0.142 0 0.754-2.873 0.996-3.172 0.142-0.185 1.948-2.233 4.025-4.551 2.076-2.332 3.911-4.494 4.096-4.821 0.37-0.683 0.427-1.977 0.128-2.716-0.668-1.579-2.603-2.46-4.139-1.892zM23.111 1.479c0.654 0.498 0.924 1.052 0.924 1.863s-0.27 1.365-0.953 1.877c-0.683 0.512-1.92 0.569-2.56 0.1-1.28-0.953-1.422-2.674-0.299-3.712 0.768-0.725 2.020-0.782 2.887-0.128zM29.881 8.292c0.697 0.455 1.166 1.422 1.067 2.219-0.284 2.148-2.944 2.745-4.267 0.967-0.228-0.299-0.299-0.612-0.299-1.237 0-0.939 0.256-1.408 1.067-1.963 0.654-0.441 1.764-0.441 2.432 0.014zM15.218 16.74c-0.228 0.754-0.526 1.479-0.668 1.607-0.299 0.284-6.585 5.845-7.225 6.386l-0.427 0.37 0.37-0.427c1.252-1.436 8.263-9.316 8.306-9.316 0.014 0-0.142 0.612-0.356 1.38z"></path>
</svg>
